<?xml version="1.0" standalone="no"?><!DOCTYPE svg PUBLIC "-//W3C//DTD SVG 1.1//EN" "http://www.w3.org/Graphics/SVG/1.1/DTD/svg11.dtd"><svg t="1527945054159" class="icon" style="" viewBox="0 0 1024 1024" version="1.1" xmlns="http://www.w3.org/2000/svg" p-id="6192" xmlns:xlink="http://www.w3.org/1999/xlink" width="300" height="300"><defs><style type="text/css"></style></defs><path d="M698.417546 276.837819c-0.028 7.364982-0.349999 14.708965-0.974998 22.045946-0.225 2.622993-1.862996 15.406962-0.323999 4.21299-0.570999 4.15699-1.294997 8.28998-2.078995 12.41197-2.759993 14.488965-6.988983 28.67893-12.31397 42.424897-0.631999 1.630996-1.298997 3.249992-1.966996 4.867988 3.745991-9.080978 1.268997-3.067992 0.405999-1.140997-1.418997 3.181992-2.940993 6.315985-4.494989 9.432977-3.353992 6.726983-7.087982 13.258968-11.044973 19.645952-3.638991 5.874986-7.585981 11.553972-11.703971 17.099958-3.848991 5.179988 4.722989-6.000986 0.730998-0.931998-1.062998 1.353997-2.157994 2.686993-3.251992 4.01799-2.552993 3.104992-5.210988 6.119986-7.909981 9.097978-4.626989 5.101988-9.518977 9.958976-14.553965 14.654965-2.520993 2.349994-5.110988 4.618989-7.726981 6.860983-2.061995 1.765996-12.957968 10.283975-4.347989 3.697991-11.457972 8.761979-23.763942 16.38496-36.572911 22.999944-3.092992 1.596996-6.235985 3.097992-9.394977 4.560989-1.583997 0.734998-3.181992 1.433997-4.778988 2.133994 8.994978-3.93999 3.053992-1.289997 1.091998-0.494999-7.065982 2.854993-14.294966 5.299987-21.596947 7.482982-6.812983 2.033996-13.734967 3.695991-20.700949 5.126988-3.514991 0.722998-7.053982 1.329997-10.599975 1.895996-2.150994 0.344999-8.833979 1.192997 1.248997-0.118-2.399994 0.311999-4.806988 0.561999-7.215982 0.802998-15.249962 1.526997-30.643926 1.468997-45.906888 0.168-2.620993-0.224-15.406962-1.861996-4.21199-0.322999-3.562991-0.491999-7.110982-1.098998-10.650974-1.744996-7.590981-1.387997-15.095963-3.216992-22.518945-5.316987-6.777983-1.918996-13.447967-4.20199-20.034951-6.698983-1.637996-0.621999-3.260992-1.275997-4.883988-1.932996-6.066986-2.450994 7.103982 3.073992 1.115998 0.450999-3.723991-1.628996-7.387982-3.392992-11.025973-5.205988-12.911969-6.438984-25.167939-14.151966-36.74391-22.749945-5.182988-3.847991 6.000986 4.723989 0.932998 0.733998-1.355997-1.066998-2.686993-2.159994-4.01799-3.253992-2.662993-2.186994-5.253987-4.457989-7.822981-6.751983-5.561987-4.974988-10.843973-10.256975-15.931961-15.709961-4.700989-5.040988-9.133978-10.323975-13.395968-15.737961 6.654983 8.454979-0.801998-1.248997-2.257994-3.296992-2.335994-3.286992-4.553989-6.654983-6.725983-10.049976-3.734991-5.843986-7.155982-11.878971-10.381975-18.016956-1.618996-3.079992-3.138992-6.210985-4.624989-9.357977-0.744998-1.577997-1.456997-3.170992-2.166994-4.762989-2.272994-5.093988 3.039992 7.519981-0.204-0.504999-5.521987-13.664967-9.644977-27.870932-12.609969-42.299897-0.723998-3.514991-1.330997-7.053982-1.895996-10.597975-0.344999-2.150994-1.192997-8.833979 0.118 1.249997-0.234999-1.799996-0.427999-3.602991-0.621999-5.405987-0.849998-7.907981-1.228997-15.860961-1.318997-23.813942-0.082-7.368982 0.242999-14.737965 0.815998-22.082946 0.280999-3.624991 0.684998-7.240982 1.124998-10.848973-1.234997 10.077976-0.447999 3.412991-0.118 1.249997 0.360999-2.368994 0.782998-4.727989 1.213997-7.083982 2.653993-14.522965 6.783983-28.75393 12.015971-42.550896 0.620999-1.638996 1.276997-3.261992 1.932996-4.885988 2.451994-6.066986-3.073992 7.103982-0.451999 1.116998 1.397997-3.193992 2.898993-6.338985 4.431989-9.469977 3.306992-6.751983 6.995983-13.312968 10.908973-19.729952 3.598991-5.900986 7.505981-11.609971 11.586972-17.185958 1.226997-1.672996 5.179988-6.765983-0.770998 0.901998 1.056998-1.360997 2.141994-2.700993 3.225992-4.03999 2.530993-3.122992 5.168988-6.155985 7.847981-9.152978 9.568977-10.699973 20.171951-20.45395 31.446924-29.327928-8.454979 6.654983 1.247997-0.801998 3.296992-2.258994 2.815993-1.999996 5.695986-3.91299 8.593979-5.793986 6.299985-4.08899 12.826969-7.818981 19.472952-11.312972 3.079992-1.617996 6.211985-3.139992 9.357977-4.624989 1.577997-0.744998 3.168992-1.453997 4.760989-2.166994 5.968986-2.663993-7.164982 2.946993-1.114998 0.450999 7.041983-2.904993 14.245966-5.400987 21.525948-7.630981 6.792983-2.082995 13.695967-3.792991 20.64395-5.273987 3.505991-0.747998 7.035983-1.377997 10.572975-1.972996 1.778996-0.298999 3.561991-0.556999 5.344987-0.813998-10.619975 1.538997-1.713996 0.274999 0.588999 0.027 15.236962-1.639996 30.627926-1.693996 45.897888-0.504999 3.624991 0.282999 7.237982 0.684998 10.846973 1.125998-11.185972-1.371997 1.469997 0.317999 4.06999 0.772998 7.608981 1.332997 15.135963 3.108992 22.579945 5.158988 6.796983 1.869996 13.489967 4.10599 20.097951 6.557984 2.386994 0.884998 13.840967 5.709986 3.808991 1.401997 3.735991 1.605996 7.415982 3.342992 11.067973 5.130988 12.961968 6.347985 25.275938 13.977966 36.91791 22.495946 1.671996 1.226997 6.763983 5.179988-0.901998-0.769998 1.360997 1.056998 2.700993 2.140994 4.04099 3.226992 2.676993 2.168994 5.284987 4.418989 7.870981 6.698983 5.595987 4.935988 10.912973 10.178976 16.039961 15.599962 4.734989 5.005988 9.204978 10.257975 13.503967 15.640962 4.02499 5.041988-4.615989-6.084986-0.732998-0.931998 1.038998 1.376997 2.046995 2.776993 3.056992 4.17699 2.358994 3.269992 4.600989 6.619983 6.794983 9.999976 3.772991 5.814986 7.235982 11.824971 10.505975 17.935957 1.637996 3.067992 3.181992 6.186985 4.687989 9.321977 0.756998 1.569997 1.477997 3.156992 2.197994 4.744989 3.580991 7.869981-1.871996-4.691989 0.260999 0.475999 5.841986 14.164966 10.182976 28.921929 13.266968 43.921893 0.721998 3.514991 1.328997 7.053982 1.895996 10.599975 0.344999 2.150994 1.191997 8.833979-0.118-1.249997 0.312999 2.400994 0.561999 4.807988 0.803998 7.216982C698.067547 260.906858 698.388546 268.873838 698.417546 276.837819c0.063 17.226958 14.325965 31.602923 31.602923 31.602923 17.179958 0 31.665923-14.375965 31.603923-31.602923-0.246999-66.458838-24.247941-129.242686-66.634837-180.103562-39.635904-47.559884-97.759762-80.946803-158.559614-92.057775-65.75884-12.017971-133.913674-0.789998-191.824533 32.85992-56.013864 32.54692-97.727762 84.446794-120.566707 144.676648-22.652945 59.738855-22.172946 129.483685 0 189.25054 22.453946 60.520853 64.906842 111.807728 120.566707 144.676648 57.806859 34.138917 126.124693 44.370892 191.824533 32.85992 60.999852-10.687973 118.687711-44.88689 158.559614-92.057775 42.620896-50.423877 66.389838-113.978722 66.634837-180.103562 0.063-17.227958-14.424965-31.601923-31.603923-31.601923C712.745511 245.235896 698.482546 259.613861 698.417546 276.837819zM72.30907 966.153141c0.026-9.703977 0.342999-19.393952 0.948998-29.078929 0.303999-4.838988 0.724998-9.667977 1.186997-14.493965 0.228999-2.413994 0.498999-4.821988 0.768998-7.229982 0.188-1.685996 1.658996-12.545969 0.412999-3.616991 2.788993-20.001951 7.093982-39.776903 12.570969-59.208856 2.628993-9.331977 5.643987-18.554955 8.882978-27.688932 1.620996-4.571989 3.355992-9.102978 5.128988-13.615967 0.885998-2.257994 1.810996-4.500989 2.734993-6.743983-3.411991 8.27798 0.596999-1.277997 1.292997-2.852993 7.641981-17.251958 16.52196-33.938917 26.295936-50.072878 4.691989-7.740981 9.676977-15.305962 14.828964-22.746945 2.577993-3.721991 5.238987-7.384982 7.926981-11.026973 1.344997-1.819996 2.716993-3.619991 4.08899-5.422987-5.300987 6.954983 1.011998-1.198997 2.055995-2.499994 11.790971-14.684965 24.61894-28.52093 38.170907-41.589899 6.477984-6.244985 13.188968-12.24197 20.028951-18.082956 3.421991-2.919993 6.907983-5.762986 10.414975-8.578979 1.200997-0.962998 7.336982-5.722986 0.687998-0.601999 2.374994-1.827996 4.783988-3.616991 7.193982-5.397987 15.075963-11.135973 30.927925-21.201948 47.283885-30.348926 7.198982-4.02499 14.537965-7.793981 21.949947-11.408972 3.466991-1.689996 6.968983-3.307992 10.479975-4.906988 2.195994-0.998998 4.404989-1.962996 6.614983-2.925993 7.535981-3.282992-6.260985 2.571993 1.342997-0.543999 16.35096-6.699983 33.149919-12.27297 50.180878-16.965959 17.033959-4.692989 34.370916-8.22898 51.833874-10.862973 3.592991-0.510999 3.179992-0.467999-1.242997 0.128 2.388994-0.320999 4.780988-0.603999 7.174982-0.883998 4.787988-0.564999 9.587977-1.011998 14.390965-1.418997 9.711977-0.824998 19.455952-1.246997 29.200929-1.430997 18.121956-0.341999 36.257911 0.570999 54.282868 2.424994 1.946996 0.2 15.100963 1.872996 6.311985 0.673999 4.895988 0.668999 9.774976 1.457997 14.644965 2.288994 9.741977 1.659996 19.411952 3.725991 29.020929 6.030986 17.611957 4.22699 34.916915 9.678977 51.865874 16.043961 3.813991 1.430997 7.595981 2.949993 11.366972 4.485989 7.692981 3.136992-6.170985-2.675993 1.450997 0.631999 2.241994 0.973998 4.466989 1.981996 6.691983 2.992992 8.902978 4.03899 17.635957 8.448979 26.249936 13.067968 15.182963 8.14498 34.303917 3.91899 43.238895-11.336972 8.463979-14.445965 3.824991-35.103915-11.336972-43.237895-76.030815-40.7809-162.299605-60.806852-248.557395-56.790862-82.805799 3.854991-164.358599 29.616928-234.12943 74.403819-64.749843 41.563899-119.00471 98.85776-157.182617 165.638597C30.394173 802.495539 9.324224 884.29834 9.099224 966.149141c-0.047 17.226958 14.409965 31.603923 31.601923 31.603923C57.970106 997.756064 72.26307 983.380099 72.30907 966.153141L72.30907 966.153141zM571.778854 694.783801c53.559869 0 107.119739 0 160.680609 0 75.579816 0 151.159632 0 226.737448 0 8.03398 0 16.067961 0 24.101941 0 17.227958 0 31.603923-14.375965 31.603923-31.602923 0-17.227958-14.375965-31.603923-31.603923-31.603923-53.560869 0-107.120739 0-160.680609 0-75.578816 0-151.158632 0-226.737448 0-8.03398 0-16.067961 0-24.101941 0-17.227958 0-31.602923 14.375965-31.602923 31.603923C540.175931 680.407837 554.550896 694.783801 571.778854 694.783801L571.778854 694.783801zM571.778854 859.391401c53.559869 0 107.119739 0 160.680609 0 75.579816 0 151.159632 0 226.737448 0 8.03398 0 16.067961 0 24.101941 0 17.227958 0 31.603923-14.373965 31.603923-31.602923 0-17.227958-14.375965-31.602923-31.603923-31.602923-53.560869 0-107.120739 0-160.680609 0-75.578816 0-151.158632 0-226.737448 0-8.03398 0-16.067961 0-24.101941 0-17.227958 0-31.602923 14.374965-31.602923 31.602923C540.175931 845.017436 554.550896 859.391401 571.778854 859.391401L571.778854 859.391401zM571.778854 1024c53.559869 0 107.119739 0 160.680609 0 75.579816 0 151.159632 0 226.737448 0 8.03398 0 16.067961 0 24.101941 0 17.227958 0 31.603923-14.374965 31.603923-31.603923 0-17.226958-14.375965-31.601923-31.603923-31.601923-53.560869 0-107.120739 0-160.680609 0-75.578816 0-151.158632 0-226.737448 0-8.03398 0-16.067961 0-24.101941 0-17.227958 0-31.602923 14.374965-31.602923 31.601923C540.175931 1009.625035 554.550896 1024 571.778854 1024L571.778854 1024z" p-id="6193" fill="#488aff"></path></svg>