<?xml version="1.0" standalone="no"?><!DOCTYPE svg PUBLIC "-//W3C//DTD SVG 1.1//EN" "http://www.w3.org/Graphics/SVG/1.1/DTD/svg11.dtd"><svg t="1527944873613" class="icon" style="" viewBox="0 0 1024 1024" version="1.1" xmlns="http://www.w3.org/2000/svg" p-id="1996" xmlns:xlink="http://www.w3.org/1999/xlink" width="300" height="300"><defs><style type="text/css"></style></defs><path d="M512 192v-192c282.624 0 512 229.376 512 512h-192c0-176.64-143.36-320-320-320z m-512 320c0-261.12 195.584-476.16 448-507.392v194.048c-145.92 29.696-256 158.72-256 313.344 0 154.624 110.08 283.648 256 313.344V1019.392c-252.416-31.232-448-246.272-448-507.392z m825.344 64H1019.392C988.16 828.416 773.12 1024 512 1024v-192c154.624 0 283.648-110.08 313.344-256z" fill="#488aff" p-id="1997"></path><path d="M623.104 455.68h-52.736l67.072-71.68c7.168-7.68 7.168-19.968 0-28.16l-12.8-14.336c-7.168-7.68-20.992-7.68-28.16 0L512 432.128l-84.48-90.624c-7.168-7.68-20.992-7.68-28.16 0l-12.8 13.824c-7.168 7.68-7.168 19.968 0 28.16l67.072 72.192h-52.736c-11.264 0-20.48 9.216-20.48 20.48v19.968c0 11.264 9.216 20.48 20.48 20.48h80.384v40.448h-80.384c-11.264 0-20.48 9.216-20.48 20.48v19.968c0 11.264 9.216 20.48 20.48 20.48h80.384v60.416c0 11.264 9.216 20.48 20.48 20.48h20.48c11.264 0 20.48-9.216 20.48-20.48v-60.416h80.384c11.264 0 20.48-9.216 20.48-20.48v-19.968c0-11.264-9.216-20.48-20.48-20.48H542.72v-40.448h80.384c11.264 0 20.48-9.216 20.48-20.48v-19.968c0-11.264-9.216-20.48-20.48-20.48z" fill="#488aff" p-id="1998"></path></svg>