<?xml version="1.0" standalone="no"?><!DOCTYPE svg PUBLIC "-//W3C//DTD SVG 1.1//EN" "http://www.w3.org/Graphics/SVG/1.1/DTD/svg11.dtd"><svg t="1527847314206" class="icon" style="" viewBox="0 0 1024 1024" version="1.1" xmlns="http://www.w3.org/2000/svg" p-id="10724" xmlns:xlink="http://www.w3.org/1999/xlink" width="300" height="300"><defs><style type="text/css"></style></defs><path d="M938.666667 911.238095H85.333333A58.026667 58.026667 0 0 1 27.428571 853.333333V246.369524A58.026667 58.026667 0 0 1 85.333333 188.464762h853.333334a58.026667 58.026667 0 0 1 57.904762 57.904762V853.333333A58.026667 58.026667 0 0 1 938.666667 911.238095zM85.333333 207.238095a39.619048 39.619048 0 0 0-39.619047 39.619048V853.333333A39.619048 39.619048 0 0 0 85.333333 892.952381h853.333334A39.619048 39.619048 0 0 0 978.285714 853.333333V246.369524A39.619048 39.619048 0 0 0 938.666667 207.238095H85.333333z" p-id="10725" fill="#488aff"></path><path d="M85.333333 197.607619h853.333334a48.761905 48.761905 0 0 1 48.761904 48.761905v97.523809H36.571429v-97.523809a48.761905 48.761905 0 0 1 48.761904-48.761905z" p-id="10726" fill="#488aff"></path><path d="M85.333333 121.904762h266.24a97.52381 97.52381 0 0 1 97.52381 97.523809v114.224762H36.571429V170.666667a48.761905 48.761905 0 0 1 48.761904-48.761905z" p-id="10727" fill="#488aff"></path><path d="M458.24 342.79619H27.428571V170.666667A58.026667 58.026667 0 0 1 85.333333 112.761905h266.24A106.788571 106.788571 0 0 1 458.24 219.428571v123.367619z m-412.525714-18.285714h394.24V219.428571a88.502857 88.502857 0 0 0-88.380953-88.380952H85.333333A39.619048 39.619048 0 0 0 45.714286 170.666667v153.843809zM512 679.619048a71.68 71.68 0 0 1-71.558095-71.558096V525.409524a71.558095 71.558095 0 0 1 143.11619 0v82.529524A71.68 71.68 0 0 1 512 679.619048z m0-207.238096a53.272381 53.272381 0 0 0-53.272381 53.272381v82.529524a53.272381 53.272381 0 0 0 106.544762 0V525.409524A53.272381 53.272381 0 0 0 512 472.137143z" p-id="10728" fill="#488aff"></path><path d="M383.878095 552.838095l256.121905 0 0 195.047619-256.121905 0 0-195.047619Z" p-id="10729" fill="#488aff"></path><path d="M615.740952 757.028571h-207.238095a33.52381 33.52381 0 0 1-33.523809-33.523809v-146.285714a33.52381 33.52381 0 0 1 33.523809-33.52381h207.238095a33.52381 33.52381 0 0 1 33.52381 33.52381v146.285714a33.52381 33.52381 0 0 1-33.52381 33.523809z m-207.238095-195.047619a15.238095 15.238095 0 0 0-15.238095 15.238096v146.285714a15.238095 15.238095 0 0 0 15.238095 15.238095h207.238095a15.238095 15.238095 0 0 0 15.238096-15.238095v-146.285714a15.238095 15.238095 0 0 0-15.238096-15.238096h-207.238095z" p-id="10730" fill="#488aff"></path><path d="M512 640.487619m-25.6 0a25.6 25.6 0 1 0 51.2 0 25.6 25.6 0 1 0-51.2 0Z" p-id="10731" fill="#488aff"></path><path d="M497.493333 644.632381h29.013334v39.497143h-29.013334z" p-id="10732" fill="#488aff"></path></svg>