<?xml version="1.0" standalone="no"?><!DOCTYPE svg PUBLIC "-//W3C//DTD SVG 1.1//EN" "http://www.w3.org/Graphics/SVG/1.1/DTD/svg11.dtd"><svg t="1527845533271" class="icon" style="" viewBox="0 0 1216 1024" version="1.1" xmlns="http://www.w3.org/2000/svg" p-id="8059" xmlns:xlink="http://www.w3.org/1999/xlink" width="152" height="128"><defs><style type="text/css"></style></defs><path d="M1040.239592 240.036482c8.831589 0 15.999255-7.167666 15.999255-15.999255l0-53.277521c0-28.894655-23.518906-52.413561-52.413561-52.413561l-85.979999 0-19.615087-57.885306c-2.751872-8.15962-11.519464-12.703409-19.807078-10.175526l-465.67433 141.561412c-8.447607 2.591879-13.215385 11.519464-10.655504 19.967071 2.111902 6.911678 8.447607 11.327473 15.327287 11.327473 1.535929 0 3.103856-0.22399 4.671783-0.671969l450.827021-137.081621 42.974 126.874096c2.847867 8.38361 11.999442 12.927398 20.287056 10.015534 8.38361-2.815869 12.863401-11.935445 10.015534-20.287056l-17.503185-51.677595 75.164502 0c11.263476 0 20.41505 9.151574 20.41505 20.41505l0 53.309519c-0.031999 8.831589 7.135668 15.999255 15.967257 15.999255zM1167.945649 480.025314c-8.831589 0-15.999255 7.167666-15.999255 15.999255s7.167666 15.999255 15.999255 15.999255c11.231477 0 15.999255 4.767778 15.999255 15.999255l0 191.991066c0 11.231477-4.767778 15.999255-15.999255 15.999255l-255.988088 0c-11.231477 0-15.999255-4.767778-15.999255-15.999255l0-159.992555c0-11.231477 4.767778-15.999255 15.999255-15.999255l191.991066 0c8.831589 0 15.999255-7.167666 15.999255-15.999255l0-191.991066c0-29.150643-18.847123-47.997766-47.997766-47.997766l-975.954584 0c-39.454164 0-63.997022-24.542858-63.997022-63.997022s24.542858-63.997022 63.997022-63.997022l162.424442 0-96.827494 31.934514c-8.38361 2.751872-12.959397 11.807451-10.207525 20.19106 2.207897 6.719687 8.479605 10.975489 15.199293 10.975489 1.663923 0 3.327845-0.255988 5.023766-0.799963l579.78102-191.127106c8.38361-2.78387 12.959397-11.807451 10.175526-20.223059-2.751872-8.38361-11.807451-12.959397-20.223059-10.175526l-387.181982 127.674059c-0.735966-0.127994-1.407934-0.447979-2.175899-0.447979l-255.988088 0c-57.405329 0-95.995533 38.590204-95.995533 95.995533l0 703.967241c0 57.405329 38.590204 95.995533 95.995533 95.995533l975.954584 0c29.150643 0 47.997766-18.847123 47.997766-47.997766l0-159.992555c0-8.831589-7.167666-15.999255-15.999255-15.999255s-15.999255 7.167666-15.999255 15.999255l0 159.992555c0 11.231477-4.767778 15.999255-15.999255 15.999255l-975.954584 0c-39.454164 0-63.997022-24.542858-63.997022-63.997022l0-629.986683c16.415236 13.855355 38.142225 22.014976 63.997022 22.014976l975.954584 0c11.231477 0 15.999255 4.767778 15.999255 15.999255l0 175.99181-175.99181 0c-29.150643 0-47.997766 18.847123-47.997766 47.997766l0 159.992555c0 29.150643 18.847123 47.997766 47.997766 47.997766l255.988088 0c29.150643 0 47.997766-18.847123 47.997766-47.997766l0-191.991066c0-29.150643-18.847123-47.997766-47.997766-47.997766zM991.953839 640.017869c0 17.663178 14.335333 31.998511 31.998511 31.998511s31.998511-14.335333 31.998511-31.998511c0-17.663178-14.335333-31.998511-31.998511-31.998511-17.663178 0-31.998511 14.335333-31.998511 31.998511z" p-id="8060" fill="#488aff"></path></svg>